<?xml version="1.0" encoding="UTF-8"?>
<svg xmlns="http://www.w3.org/2000/svg" 
viewBox="0 0 1200 500"
 width="1200" height="500">
   
  <g transform="translate(40,60) scale(1)" stroke="#97161a" stroke-width="1" stroke-linejoin="round" fill="none">
  <path d="M0 0 C27.26285207 -0.27954044 54.5253509 -0.49282044 81.78935528 -0.62174606 C94.45276311 -0.683239 107.1152562 -0.76684669 119.77807617 -0.90527344 C130.83394904 -1.0260743 141.88915863 -1.10257622 152.94567329 -1.12906194 C158.78330625 -1.14450905 164.61904424 -1.17996567 170.45606041 -1.26876068 C198.1232023 -1.67335878 221.62665668 0.29232467 247.45344925 10.61827278 C252.22849685 12.47861927 257.0770437 13.97721022 261.99609375 15.40234375 C263.45283523 15.84059781 264.9092777 16.27984881 266.36523438 16.72070312 C267.72252645 17.12673623 269.07994822 17.53233604 270.4375 17.9375 C280.74342252 21.01680098 290.89724727 24.3016118 301 28 C301 33.94 301 39.88 301 46 C297.04 45.01 293.08 44.02 289 43 C289 91.84 289 140.68 289 191 C249.96534104 208.22117307 249.96534104 208.22117307 235.9375 214.1875 C233.7617375 215.11487017 231.58624227 216.04286117 229.411026 216.97151184 C223.98413538 219.28764672 223.98413538 219.28764672 221.8436079 220.17132187 C219.99017649 220.96064192 219.99017649 220.96064192 218.31670856 222.01181412 C210.38091591 226.41889906 201.41204317 225.56849352 192.61621094 225.53344727 C190.75109171 225.54051188 188.88597821 225.54925917 187.02087402 225.55955505 C181.97568304 225.58199004 176.9308066 225.57912428 171.88558483 225.57023358 C167.67046625 225.56511407 163.45540628 225.57242353 159.24029374 225.57970566 C149.29979183 225.59668368 139.35944354 225.59315727 129.41894531 225.57641602 C119.1639238 225.55946863 108.90932713 225.57536997 98.65435195 225.6076389 C89.84309291 225.63431437 81.0319663 225.64161715 72.22067094 225.63312382 C66.96061401 225.62819211 61.70081312 225.63042456 56.44078827 225.65091133 C51.49936737 225.66923819 46.55855997 225.66334649 41.61717224 225.63871193 C39.80352842 225.63369588 37.98983805 225.63721435 36.17623138 225.64986038 C33.70139385 225.66575339 31.22858636 225.65087821 28.75384521 225.62818909 C28.03526832 225.64002482 27.31669143 225.65186054 26.57633948 225.66405493 C22.92842077 225.59604056 21.22685413 225.1881395 18.39038467 222.83573818 C17.60155773 221.89994458 16.81273079 220.96415098 16 220 C15.46793635 219.54463676 14.93587269 219.08927353 14.38768589 218.62011141 C11.1677022 215.84809756 10.10251736 214.525395 9.26171303 210.21632576 C9.2367089 208.76959538 9.24436692 207.32206323 9.2784729 205.8755188 C9.27334635 205.07409954 9.2682198 204.27268028 9.2629379 203.44697559 C9.25307925 200.76997563 9.28601002 198.09524792 9.31884766 195.41845703 C9.32054062 193.49641473 9.31958909 191.57436854 9.31619263 189.65232849 C9.31447144 184.43969967 9.34974187 179.2278996 9.39163637 174.01546335 C9.42914953 168.5662497 9.43266921 163.11701695 9.43978882 157.66769409 C9.45843589 147.35103944 9.50767128 137.03476636 9.56788576 126.71827972 C9.634955 114.97234788 9.66794098 103.22639779 9.69805837 91.48032212 C9.76077024 67.32000321 9.86630283 43.16002299 10 19 C6.7 19 3.4 19 0 19 C0 12.73 0 6.46 0 0 Z M27 18 C27 28.89 27 39.78 27 51 C78.48 51 129.96 51 183 51 C183 56.61 183 62.22 183 68 C131.52 68 80.04 68 27 68 C27 78.23 27 88.46 27 99 C78.48 99 129.96 99 183 99 C183 104.61 183 110.22 183 116 C131.52 116 80.04 116 27 116 C27 126.23 27 136.46 27 147 C78.48 147 129.96 147 183 147 C183 152.61 183 158.22 183 164 C131.52 164 80.04 164 27 164 C27 178.52 27 193.04 27 208 C85.41 208 143.82 208 204 208 C204 145.3 204 82.6 204 18 C145.59 18 87.18 18 27 18 Z M218 22 C218 82.06 218 142.12 218 204 C237.02307532 196.39076987 256.01810885 188.71139328 275 181 C275 148.99 275 116.98 275 84 C258.11760966 78.96919973 258.11760966 78.96919973 245 77 C245 61.49 245 45.98 245 30 C239.56184789 27.96069296 234.21410402 26.03988992 228.6875 24.3125 C227.98560547 24.08755859 227.28371094 23.86261719 226.56054688 23.63085938 C223.59707916 22.70142098 221.12520454 22 218 22 Z M254 32 C254 43.88 254 55.76 254 68 C260.93 69.65 267.86 71.3 275 73 C275 61.45 275 49.9 275 38 C268.07 36.02 261.14 34.04 254 32 Z " fill="#DA2A21" transform="translate(35,54)"/>
<path d="M0 0 C0.33 0 0.66 0 1 0 C0.979375 0.56847656 0.95875 1.13695312 0.9375 1.72265625 C1.04179924 5.62735896 1.24354558 8.1172033 3.84765625 11.15625 C5.84144666 12.87224598 7.85398663 14.47970352 10 16 C9.34 16.66 8.68 17.32 8 18 C0.36591928 11.89955157 0.36591928 11.89955157 -0.53125 7.2421875 C-0.50322778 4.78323753 -0.35876446 2.4316258 0 0 Z " fill="#DA3330" transform="translate(45,258)"/>
<path d="M0 0 C-0.66 0 -1.32 0 -2 0 C-2 0.66 -2 1.32 -2 2 C-6.1196377 3.29243536 -9.66831683 4.26252625 -14 4 C-4.81927711 -2.12048193 -4.81927711 -2.12048193 0 0 Z " fill="#DC342E" transform="translate(311,236)"/>
<path d="M0 0 C-1.4562545 0.67119549 -2.91507867 1.33681807 -4.375 2 C-5.59316406 2.556875 -5.59316406 2.556875 -6.8359375 3.125 C-9 4 -9 4 -11 4 C-11 3.01 -11 2.02 -11 1 C-4.03571429 -1.27678571 -4.03571429 -1.27678571 0 0 Z " fill="#DF3F3B" transform="translate(306,253)"/>

  </g>

 
  <text x="420" y="225" font-family="Montserrat, 'Arial Black', Arial, sans-serif"
        font-size="120" font-weight="800" fill="#000000" letter-spacing="2">
    DUMPSTER
  </text>

 
  <text x="420" y="300" font-family="Montserrat, Arial, sans-serif"
        font-size="60" font-weight="700" fill="#000000" letter-spacing="4">
    RENTAL SERVICES
  </text>
</svg>
